<?xml version="1.0" encoding="utf-8"?>
<!-- Generator: Adobe Illustrator 17.1.0, SVG Export Plug-In . SVG Version: 6.00 Build 0)  -->
<!DOCTYPE svg PUBLIC "-//W3C//DTD SVG 1.1//EN" "http://www.w3.org/Graphics/SVG/1.1/DTD/svg11.dtd">
<svg version="1.1" id="Слой_1" xmlns="http://www.w3.org/2000/svg" xmlns:xlink="http://www.w3.org/1999/xlink" x="0px" y="0px"
	 viewBox="0 0 52.1439972 52.1520081" enable-background="new 0 0 52.1439972 52.1520081" xml:space="preserve">
<path fill="#002E65" d="M2.7060001,2.7047081h46.7319984v46.7419968H2.7060001V2.7047081z M0-0.0002937v1.3520012v49.447998
	v1.3520012h1.353h49.4379997h1.3530006V-0.0002937H0z"/>
<g>
	<defs>
		<rect id="SVGID_1_" y="0.0000076" width="52.144001" height="52.1520004"/>
	</defs>
	<clipPath id="SVGID_2_">
		<use xlink:href="#SVGID_1_"  overflow="visible"/>
	</clipPath>
	<path clip-path="url(#SVGID_2_)" fill="#002E65" d="M45.5292015,34.5557098
		c-2.6400032,0.526001-5.2779999,0.6899986-7.8780022,0.5349998l0.0159988,11.5459976l8.6949997-0.0109978l-0.0159988-12.269001
		C46.0732002,34.4247093,45.8061981,34.501709,45.5292015,34.5557098"/>
	<path clip-path="url(#SVGID_2_)" fill="#002E65" d="M27.1595993,46.6495094l8.6940002-0.0100021l-0.0130005-11.7059975
		c-2.9860001-0.3520012-5.9040012-1.1380005-8.6970005-2.2990036L27.1595993,46.6495094z"/>
	<path clip-path="url(#SVGID_2_)" fill="#002E65" d="M16.6541996,46.663208l8.6949997-0.0099983l-0.019001-14.8310013
		c-3.1099987-1.5050011-6.0410004-3.4799995-8.7019997-5.8740005L16.6541996,46.663208z"/>
	<path clip-path="url(#SVGID_2_)" fill="#002E65" d="M6.1469002,46.6768074l8.6949997-0.0099983l-0.0269995-22.4689999
		c-3.5570002-3.6240005-6.5410004-8.0230007-8.710001-13.0109997L6.1469002,46.6768074z"/>
	<path clip-path="url(#SVGID_2_)" fill="#002E65" d="M46.3114014,6.2950096L13.3614006,6.3370132
		c1.7709999,15.3539963,14.823,27.2679977,30.6499977,27.2489967c0.7859993-0.0020027,1.5620003-0.031002,2.3320007-0.0929985
		L46.3114014,6.2950096z"/>
</g>
</svg>
