<?xml version="1.0" encoding="utf-8"?>
<!-- Generator: Adobe Illustrator 17.1.0, SVG Export Plug-In . SVG Version: 6.00 Build 0)  -->
<!DOCTYPE svg PUBLIC "-//W3C//DTD SVG 1.1//EN" "http://www.w3.org/Graphics/SVG/1.1/DTD/svg11.dtd">
<svg version="1.1" id="Слой_1" xmlns="http://www.w3.org/2000/svg" xmlns:xlink="http://www.w3.org/1999/xlink" x="0px" y="0px"
	 viewBox="0 0 283.2120056 52.3679962" enable-background="new 0 0 283.2120056 52.3679962" xml:space="preserve">
<path fill="#002E65" d="M2.7060001,2.7046967h46.7319984v46.7419968H2.7060001V2.7046967z M0-0.0003052V1.351696v49.447998
	v1.3520012h1.353h49.4379997h1.3530006v-1.3520012V1.351696v-1.3520012H0z"/>
<g>
	<defs>
		<rect id="SVGID_1_" y="-0.0000038" width="283.2120056" height="52.368"/>
	</defs>
	<clipPath id="SVGID_2_">
		<use xlink:href="#SVGID_1_"  overflow="visible"/>
	</clipPath>
	<path clip-path="url(#SVGID_2_)" fill="#002E65" d="M45.5292015,34.5556946
		c-2.6400032,0.526001-5.2779999,0.6900024-7.8780022,0.5350037l0.0159988,11.5459976l8.6949997-0.0110016L46.346199,34.3566971
		C46.0732002,34.4246979,45.8061981,34.5016975,45.5292015,34.5556946"/>
	<path clip-path="url(#SVGID_2_)" fill="#002E65" d="M27.1595993,46.649498l8.6940002-0.0100021l-0.0130005-11.7060013
		c-2.9860001-0.3519974-5.9040012-1.1380005-8.6970005-2.298996L27.1595993,46.649498z"/>
	<path clip-path="url(#SVGID_2_)" fill="#002E65" d="M16.6541996,46.6631966l8.6949997-0.0099983l-0.019001-14.8310013
		c-3.1099987-1.5050011-6.0410004-3.4799995-8.7019997-5.8740005L16.6541996,46.6631966z"/>
	<path clip-path="url(#SVGID_2_)" fill="#002E65" d="M6.1469002,46.676796l8.6949997-0.0099983l-0.0269995-22.4689999
		c-3.5570002-3.6240005-6.5410004-8.0230007-8.710001-13.0109997L6.1469002,46.676796z"/>
	<path clip-path="url(#SVGID_2_)" fill="#002E65" d="M46.3114014,6.2949944L13.3614006,6.336998
		c1.7709999,15.3539963,14.823,27.2679977,30.6499977,27.2489967c0.7859993-0.0020027,1.5620003-0.031002,2.3320007-0.0929985
		L46.3114014,6.2949944z"/>
	<path clip-path="url(#SVGID_2_)" fill="#002E65" d="M274.8788757,22.6257954V0.6827965h8.3320007v35.0319977h-7.7469788
		l-13.4970093-21.5059967v21.5059967h-8.3320007V0.6827965h7.79599L274.8788757,22.6257954z M240.5098877,0.6827965h8.9660034
		v22.5769997c0,3.9569988-1.2429962,7.1359997-3.7279968,9.5359993c-2.4850006,2.4009972-5.7100067,3.6010017-9.6710052,3.6010017
		c-3.8990021,0-7.1319885-1.1760025-9.696991-3.5279999c-2.5670013-2.3510017-3.8509979-5.4580021-3.8509979-9.3170013V0.6827965
		h8.9669952v22.2349987c0,1.5909996,0.3399963,2.8880005,1.0220032,3.894001
		c0.8129883,1.1349983,1.9819946,1.7029991,3.5079956,1.7029991c2.9889984,0,4.4839935-1.8649998,4.4839935-5.5970001V0.6827965z
		 M220.4738922,25.5947952c0,3.6009998-1.1869965,6.342001-3.5579987,8.2229996
		c-2.1430054,1.7190018-5.0670013,2.5790024-8.7709961,2.5790024c-4.0279999,0-7.1300049-1.0460014-9.3059998-3.1380005
		c-2.177002-2.0930004-3.2649994-5.1340008-3.2649994-9.1230011h8.9169922c0,1.2649994,0.2770081,2.3349991,0.82901,3.2110004
		c0.6489868,1.0369987,1.5589905,1.5569992,2.7279968,1.5569992c0.973999,0,1.7870026-0.3579998,2.4369965-1.0720005
		c0.6490021-0.7129993,0.973999-1.5559998,0.973999-2.5289993c0-1.0699997-0.6170044-1.9939995-1.8509979-2.7730007
		c-0.651001-0.421999-1.7550049-0.9089985-3.3139954-1.4589996c-6.8220062-2.4659977-10.2330017-6.0679989-10.2330017-10.8029995
		c0-3.112999,1.3150024-5.644001,3.947998-7.5890007c2.4019928-1.7849998,5.2119904-2.6779976,8.4299927-2.6779976
		c3.4100037,0,6.1880035,0.973999,8.3310089,2.9189987c2.144989,1.9459991,3.2649994,4.6069984,3.3619995,7.980999h-8.8679962
		c-0.2920074-2.2709999-1.3320007-3.4069977-3.1190033-3.4069977c-0.8760071,0-1.6240082,0.2439995-2.2409973,0.730999
		c-0.6170044,0.4860001-0.9260101,1.1679993-0.9260101,2.0429993c0,1.3950005,1.3320007,2.7089996,3.9950104,3.9410019
		c4.2229919,1.9469986,6.7249908,3.1959991,7.5039978,3.7459984
		C219.1418915,19.9027977,220.4738922,22.4487953,220.4738922,25.5947952 M178.4118958,24.7197952v10.9949989h-8.9660034V0.6827965
		h13.0590057c3.8659973,0,7.0009918,0.9090004,9.4049988,2.7249985c2.6309967,2.0430031,3.9459991,4.9300003,3.9459991,8.6610031
		c0,3.9899979-1.1199951,7.0949974-3.3619995,9.3169975c-2.2409973,2.2220001-5.3589935,3.3339996-9.3549957,3.3339996H178.4118958z
		 M178.4118958,16.8857956h3.5570068c3.5410004,0,5.3109894-1.4109993,5.3109894-4.2339973
		c0-2.7560005-1.8029938-4.1350021-5.4089966-4.1350021h-3.4589996V16.8857956z M149.1658936,18.2957954h3.5090027
		c1.6889954,0,3.0370026-0.4219971,4.0440063-1.2639999c1.0069885-0.843998,1.5099945-2.0919991,1.5099945-3.7479973
		c0-1.5880013-0.552002-2.8050003-1.6560059-3.6480026c-1.0079956-0.7459984-2.3389893-1.1189995-3.9959869-1.1189995h-3.4110107
		V18.2957954z M149.5558929,24.7197952v10.9949989h-8.9660034V0.6827965h13.5960083
		c3.7680054,0,6.8130035,1.0699997,9.1360016,3.211998c2.322998,2.1400032,3.4830017,5.0760002,3.4830017,8.8060036
		c0,2.8549995-0.7630005,5.2799988-2.2890015,7.2749977c-1.5279999,1.9950008-3.6710052,3.2670002-6.4329987,3.8179989
		l9.5509949,11.9209995h-10.2319946L149.5558929,24.7197952z M137.8029022,18.1987953
		c0,5.1580009-1.7779999,9.4799995-5.3360138,12.967001c-3.5559998,3.4879971-7.9339905,5.2310009-13.1309891,5.2310009
		c-5.197998,0-9.5749969-1.7430038-13.1320038-5.2310009c-3.5579987-3.4870014-5.3349991-7.809-5.3349991-12.967001
		s1.7770004-9.4799995,5.3349991-12.9659996c3.5570068-3.487999,7.9340057-5.2319984,13.1320038-5.2319984
		c5.1969986,0,9.5749893,1.7439995,13.1309891,5.2319984C136.0249023,8.7187958,137.8029022,13.0407982,137.8029022,18.1987953
		 M128.8378906,18.1987953c0-2.7899971-0.8929901-5.197998-2.6799927-7.2249985
		c-1.7870026-2.0279999-4.060997-3.0410004-6.8219986-3.0410004c-2.762001,0-5.0350037,1.0130005-6.8219986,3.0410004
		c-1.7860031,2.0270004-2.6800003,4.4350014-2.6800003,7.2249985c0,2.7910004,0.8769989,5.1739998,2.6309967,7.1529999
		c1.8199997,2.0760002,4.1090012,3.1130009,6.8710022,3.1130009c2.7610016,0,5.0510025-1.0370007,6.8700027-3.1130009
		C127.9608994,23.3727951,128.8378906,20.9897957,128.8378906,18.1987953 M72.4999008,18.0537949
		c0,2.8200016,0.859993,5.2370014,2.5819931,7.2490005c1.8190002,2.1410007,4.125,3.2119999,6.9190063,3.2119999
		c3.8330002,0,6.6429977-1.9799995,8.4300003-5.9370003h9.3549957c-1.2340012,4.0869999-3.3779984,7.3789997-6.4319992,9.8770008
		c-3.1829987,2.6269989-6.8539963,3.9420013-11.012001,3.9420013c-5.2299957,0-9.6719971-1.7430038-13.3269958-5.2310009
		c-3.6539993-3.4870014-5.4820023-7.842001-5.4820023-13.0640011c0-5.0929985,1.788002-9.3829994,5.3610001-12.8689995
		c3.572998-3.487999,7.9089966-5.2319984,13.0100021-5.2319984c4.3849945,0,8.1849976,1.2659988,11.4020004,3.7959976
		c3.2149963,2.5300026,5.3600006,5.920002,6.4319992,10.170002H90.381897
		c-1.0390015-2.3370018-2.314003-3.9340019-3.8249969-4.7939987c-1.5110016-0.8590012-3.0450058-1.2890015-4.6050034-1.2890015
		c-2.8259964,0-5.1080017,0.980999-6.8460007,2.9430008C73.3688965,12.7897949,72.4999008,15.1987953,72.4999008,18.0537949"/>
	<path clip-path="url(#SVGID_2_)" fill="#002E65" d="M283.2114868,52.1523972h-2.5899963V41.8343964h2.5899963V52.1523972z
		 M277.1824951,48.930397c0-0.1710014-0.0190125-0.3320007-0.0540161-0.4840012
		c-0.0379944-0.151001-0.117981-0.2939987-0.242981-0.4209976c-0.1260071-0.132-0.29599-0.2300034-0.5130005-0.3040009
		c-0.2180176-0.0699997-0.5180054-0.1060028-0.8999939-0.1060028h-1.1630249v2.6230011h1.1630249
		c0.526001,0,0.9419861-0.1110001,1.25-0.3349991C277.02948,49.6773949,277.1824951,49.3533974,277.1824951,48.930397
		 M279.8544922,48.8543968c0,0.5040016-0.0960083,0.9659996-0.2879944,1.3899994
		c-0.1920166,0.4220009-0.45401,0.7669983-0.7850037,1.0349998c-0.3970032,0.3190002-0.8250122,0.545002-1.2850037,0.677002
		c-0.4589844,0.1299973-1.0189819,0.1959991-1.677002,0.1959991h-4.09198V41.8343964h2.5819702v3.8740005h1.5500183
		c0.605011,0,1.1520081,0.0429993,1.6419983,0.1289978c0.4889832,0.0840034,0.9329834,0.2860031,1.3349915,0.5990028
		c0.3560181,0.2779999,0.6140137,0.6240005,0.7749939,1.0410004
		C279.7745056,47.8963966,279.8544922,48.3553963,279.8544922,48.8543968 M265.0274963,52.1523972v-8.3509979h-3.04599v-1.9670029
		h8.6799927v1.9670029h-3.0450134v8.3509979H265.0274963z M260.9165039,52.1523972h-2.5880127v-4.5719986h-3.522995v4.5719986
		h-2.5889893V41.8343964h2.5889893v3.7779999h3.522995v-3.7779999h2.5880127V52.1523972z M243.4954987,52.1523972V41.8343964
		h6.9690094v1.9670029h-4.3940125v1.810997h4.0500031v1.9680023h-4.0500031v2.6029968h4.3940125v1.9690018H243.4954987z
		 M236.7964935,52.1523972v-8.3509979h-3.04599v-1.9670029h8.6799927v1.9670029h-3.0449982v8.3509979H236.7964935z
		 M221.9425049,52.1523972V41.8343964h6.9689941v1.9670029h-4.3930054v1.810997h4.0490112v1.9680023h-4.0490112v2.6029968h4.3930054
		v1.9690018H221.9425049z M219.8115082,52.1523972h-2.5899963V41.8343964h2.5899963V52.1523972z M213.7825012,48.930397
		c0-0.1710014-0.0189972-0.3320007-0.0540009-0.4840012c-0.0379944-0.151001-0.1179962-0.2939987-0.2440033-0.4209976
		c-0.125-0.132-0.2949982-0.2300034-0.5119934-0.3040009c-0.2180023-0.0699997-0.5180054-0.1060028-0.9000092-0.1060028h-1.1629944
		v2.6230011h1.1629944c0.526001,0,0.9420013-0.1110001,1.25-0.3349991
		C213.6295013,49.6773949,213.7825012,49.3533974,213.7825012,48.930397 M216.4544983,48.8543968
		c0,0.5040016-0.0970001,0.9659996-0.2879944,1.3899994c-0.1920013,0.4220009-0.45401,0.7669983-0.7850037,1.0349998
		c-0.3959961,0.3190002-0.8249969,0.545002-1.2850037,0.677002c-0.4589996,0.1299973-1.0179901,0.1959991-1.677002,0.1959991
		h-4.0919952V41.8343964h2.5820007v3.8740005h1.5500031c0.6040039,0,1.1529999,0.0429993,1.6419983,0.1289978
		c0.4889984,0.0840034,0.9329987,0.2860031,1.3350067,0.5990028c0.3559875,0.2779999,0.6139984,0.6240005,0.7749939,1.0410004
		C216.3744965,47.8963966,216.4544983,48.3553963,216.4544983,48.8543968 M206.1965027,52.1523972h-2.5890045v-4.5719986h-3.522995
		v4.5719986h-2.5880127V41.8343964h2.5880127v3.7779999h3.522995v-3.7779999h2.5890045V52.1523972z M195.364502,52.1523972
		h-2.5879974v-4.5719986h-3.5230103v4.5719986h-2.5890045V41.8343964h2.5890045v3.7779999h3.5230103v-3.7779999h2.5879974
		V52.1523972z M181.7644958,48.1733971l-1.052002-3.3989983l-1.0529938,3.3989983H181.7644958z M175.8524933,52.1523972
		l3.4830017-10.3180008h2.8240051l3.4819946,10.3180008h-2.6660004l-0.6470032-2.1080017h-3.2339935l-0.6450043,2.1080017
		H175.8524933z M172.8144989,48.9453964c0-0.3199997-0.0639954-0.5680008-0.1930084-0.7480011
		c-0.1299896-0.1829987-0.322998-0.3169975-0.5809937-0.4089966c-0.1560059-0.0620041-0.3739929-0.0950012-0.6470032-0.1030006
		c-0.2749939-0.007-0.6429901-0.0090027-1.1040039-0.0090027H169.8125v2.5830002h0.1389923
		c0.6740112,0,1.1380005-0.0029984,1.3960114-0.0130005c0.2579956-0.0099983,0.5219879-0.0719986,0.7889862-0.1879997
		c0.2370148-0.0999985,0.4070129-0.2509995,0.5150146-0.4469986
		C172.760498,49.4163971,172.8144989,49.1933975,172.8144989,48.9453964 M172.1654968,44.7533951
		c0-0.1679993-0.0419922-0.3379974-0.1269989-0.5130005c-0.0859985-0.1759987-0.2180023-0.303997-0.3999939-0.3809967
		c-0.1700134-0.0760002-0.3710022-0.1160011-0.605011-0.1230011c-0.2330017-0.0079994-0.5809937-0.0110016-1.0419922-0.0110016
		H169.8125v2.1840019h0.326004c0.4419861,0,0.7539978-0.0040016,0.9309998-0.0139999
		c0.1769867-0.0100021,0.3619995-0.0559998,0.5509949-0.144001c0.2050018-0.0970001,0.348999-0.2329979,0.427002-0.4029999
		C172.1255035,45.1763954,172.1654968,44.9763947,172.1654968,44.7533951 M175.4804993,48.9923973
		c0,0.5130005-0.0980072,0.9659996-0.2910004,1.3519974c-0.1930084,0.3889999-0.4539948,0.7080002-0.7819977,0.9630013
		c-0.3870087,0.3059998-0.8130035,0.5209999-1.2779999,0.651001c-0.4629974,0.1300011-1.0510101,0.1940002-1.7680054,0.1940002
		h-4.1239929V41.8343964h3.6409912c0.7559967,0,1.3300018,0.0279999,1.7190094,0.0880013
		c0.3899994,0.0550003,0.7559967,0.1759987,1.095993,0.3610001c0.3690033,0.2000008,0.6450043,0.4659996,0.8269958,0.7970009
		c0.1820068,0.3349991,0.2750092,0.7169991,0.2750092,1.1509972c0,0.5050011-0.1260071,0.9510002-0.3789978,1.3450012
		c-0.2510071,0.3919983-0.5980072,0.6800003-1.0390015,0.868v0.0550003
		c0.6360016,0.1339989,1.1459961,0.4059982,1.5279999,0.8199997
		C175.2884979,47.7343979,175.4804993,48.2913971,175.4804993,48.9923973 M163.0354919,46.9913979
		c0-0.6150017-0.0629883-1.1410027-0.1899872-1.571003c-0.125-0.4329987-0.2960052-0.7889977-0.5090027-1.0659981
		c-0.2220001-0.2799988-0.4730072-0.4839973-0.75-0.6040001c-0.279007-0.1230011-0.5690002-0.1839981-0.8710022-0.1839981
		c-0.3150024,0-0.6029968,0.0569992-0.8630066,0.1699982c-0.2579956,0.1119995-0.5090027,0.3139992-0.746994,0.6040001
		c-0.2129974,0.269001-0.3849945,0.625-0.5149994,1.0680008c-0.1320038,0.4440002-0.1990051,0.973999-0.1990051,1.586998
		c0,0.6340027,0.0619965,1.1590004,0.1869965,1.5779991c0.125,0.4190025,0.2950134,0.7680016,0.5130005,1.0510025
		c0.2220001,0.2859993,0.4730072,0.4909973,0.7540131,0.6119995c0.2799988,0.1230011,0.572998,0.1850014,0.8699951,0.1850014
		c0.3059998,0,0.6009979-0.0680008,0.8889923-0.2000008c0.2860107-0.1300011,0.5319977-0.3360023,0.7400055-0.6110001
		c0.220993-0.302002,0.3919983-0.651001,0.5130005-1.052002C162.9774933,48.1593971,163.0354919,47.6363983,163.0354919,46.9913979
		 M165.7084961,46.9953957c0,1.6710014-0.4440002,2.9799995-1.3349915,3.9379997
		c-0.8910065,0.9560013-2.1120148,1.4350014-3.6610107,1.4350014c-1.5569916,0-2.7769928-0.4860001-3.6629944-1.4529991
		c-0.8860016-0.9670029-1.3300018-2.2740021-1.3300018-3.920002c0-1.6580009,0.4440002-2.9679985,1.3300018-3.9319992
		c0.8860016-0.9630013,2.1060028-1.4440002,3.6629944-1.4440002c1.548996,0,2.7700043,0.4790001,3.6610107,1.4370003
		C165.2644958,44.0143967,165.7084961,45.3273964,165.7084961,46.9953957 M152.2805023,45.1523972
		c0-0.2900009-0.0690002-0.5410004-0.2080078-0.7509995c-0.1369934-0.2120018-0.3040009-0.3560028-0.4989929-0.4350014
		c-0.2430115-0.1049995-0.4759979-0.1679993-0.701004-0.1829987c-0.2230072-0.0170021-0.5279999-0.0250015-0.9100037-0.0250015
		h-0.3659973v3.0919991h0.1790009c0.2460022,0,0.4750061-0.0019989,0.6920013-0.007
		c0.2180023-0.0039978,0.4060059-0.0200005,0.5679932-0.0459976c0.1390076-0.0250015,0.2850037-0.0690002,0.4390106-0.137001
		c0.1539917-0.0670013,0.2740021-0.144001,0.3569946-0.2260017c0.173996-0.1709976,0.2920074-0.3470001,0.3540039-0.5309982
		C152.2485046,45.7153969,152.2805023,45.4663963,152.2805023,45.1523972 M154.9375,45.0903969
		c0,0.480999-0.0749969,0.9379997-0.2299957,1.3730011c-0.1500092,0.4319992-0.3700104,0.7959976-0.6560059,1.086998
		c-0.173996,0.1800003-0.3690033,0.3460007-0.576004,0.4980011c-0.2099915,0.1539993-0.4420013,0.2840004-0.696991,0.387001
		c-0.2519989,0.1079979-0.5299988,0.1919975-0.8270111,0.2509995c-0.2979889,0.0599976-0.6309967,0.0909996-0.9989929,0.0909996
		h-1.3560028v3.375h-2.5890045V41.8343964h3.9990082c0.5950012,0,1.1080017,0.0540009,1.5399933,0.163002
		c0.4329987,0.1079979,0.822998,0.2789993,1.1730042,0.5149994c0.3869934,0.2579994,0.6869965,0.6040001,0.8999939,1.0359993
		C154.8314972,43.9813995,154.9375,44.4953957,154.9375,45.0903969 M144.9165039,52.1523972h-2.5470123v-6.7989998
		l-3.9570007,6.7989998h-2.3959961V41.8343964h2.5480042v6.1450005l3.6589966-6.1450005h2.6930084V52.1523972z
		 M133.6714935,47.2643967c0.2290039,0.2000008,0.4150085,0.4459991,0.553009,0.7389984
		c0.1389923,0.2940025,0.2079926,0.651001,0.2079926,1.0720024c0,1.0299988-0.3950043,1.8349991-1.1869965,2.4129982
		c-0.7910004,0.5760002-1.928009,0.8640022-3.4080048,0.8640022c-0.6730042,0-1.3159943-0.057003-1.9279938-0.1790009
		c-0.6100006-0.1210022-1.1699982-0.2840004-1.677002-0.4920006v-2.3079987h0.2360001
		c0.3450012,0.2409973,0.8000031,0.4749985,1.3649979,0.704998c0.5650024,0.2280006,1.1179962,0.3430023,1.6560059,0.3430023
		c0.696991,0,1.2529907-0.125,1.6609955-0.3740005c0.4109955-0.2509995,0.6170044-0.6340027,0.6170044-1.1529999
		c0-0.4480019-0.1490021-0.7800026-0.4500122-0.9949989c-0.298996-0.2170029-0.8399963-0.321003-1.6179962-0.321003h-1.4810028
		v-1.843998h1.4100037c0.647995,0,1.1199951-0.1000023,1.4199982-0.2960014
		c0.3010101-0.1949997,0.4499969-0.4889984,0.4499969-0.8829994c0-0.3470001-0.1660004-0.5970001-0.493988-0.7539978
		c-0.3310089-0.1580009-0.7700043-0.2350006-1.3190002-0.2350006c-0.3100128,0-0.602005,0.0319977-0.8830109,0.0970001
		c-0.2789917,0.0619965-0.5509949,0.1449966-0.8199921,0.2429962c-0.2480011,0.0930023-0.4769974,0.1930008-0.6879959,0.3059998
		c-0.2100067,0.1080017-0.3700027,0.1930008-0.4790039,0.2480011h-0.2429962v-2.1489983
		c0.2999954-0.125,0.7879944-0.269001,1.4689865-0.4319992c0.6809998-0.1640015,1.3960114-0.2470016,2.1420135-0.2470016
		c1.3289948,0,2.322998,0.2200012,2.9819946,0.6629982c0.6589966,0.4400024,0.9900055,1.052002,0.9900055,1.8380013
		c0,0.5860023-0.1820068,1.0919991-0.5430145,1.519001c-0.3619995,0.4230003-0.8299866,0.7099991-1.4019928,0.8520012v0.1040001
		c0.2129974,0.0369987,0.4589996,0.1119995,0.7400055,0.2289963
		C133.2314911,46.9533958,133.4734955,47.0943985,133.6714935,47.2643967 M124.9154968,52.1523972h-2.5459976v-6.7989998
		l-3.9580002,6.7989998h-2.3949966V41.8343964h2.5469971v6.1450005l3.659996-6.1450005h2.6920013V52.1523972z
		 M111.9745026,45.1523972c0-0.2900009-0.0690002-0.5410004-0.2080002-0.7509995
		c-0.137001-0.2120018-0.3040009-0.3560028-0.4990005-0.4350014c-0.2430038-0.1049995-0.477005-0.1679993-0.701004-0.1829987
		c-0.2220001-0.0170021-0.5270004-0.0250015-0.909996-0.0250015h-0.3660049v3.0919991h0.1800003
		c0.2450027,0,0.473999-0.0019989,0.6920013-0.007c0.2170029-0.0039978,0.4059982-0.0200005,0.5670013-0.0459976
		c0.1399994-0.0250015,0.284996-0.0690002,0.439003-0.137001c0.1539993-0.0670013,0.2739944-0.144001,0.3569946-0.2260017
		c0.1750031-0.1709976,0.2929993-0.3470001,0.3550034-0.5309982
		C111.9434967,45.7153969,111.9745026,45.4663963,111.9745026,45.1523972 M114.6324997,45.0903969
		c0,0.480999-0.076004,0.9379997-0.2300034,1.3730011c-0.1509933,0.4319992-0.3699951,0.7959976-0.6559982,1.086998
		c-0.1749954,0.1800003-0.3689957,0.3460007-0.5769958,0.4980011c-0.2089996,0.1539993-0.4420013,0.2840004-0.6970062,0.387001
		c-0.2519989,0.1079979-0.5289993,0.1919975-0.8269958,0.2509995c-0.2970047,0.0599976-0.6310043,0.0909996-0.9990005,0.0909996
		h-1.3560028v3.375h-2.5889969V41.8343964h3.9990005c0.5960007,0,1.1080017,0.0540009,1.5410004,0.163002
		c0.4319992,0.1079979,0.8219986,0.2789993,1.1709976,0.5149994c0.3880005,0.2579994,0.6880035,0.6040001,0.901001,1.0359993
		C114.5264969,43.9813995,114.6324997,44.4953957,114.6324997,45.0903969 M102.5004959,46.9913979
		c0-0.6150017-0.0629959-1.1410027-0.1909943-1.571003c-0.125-0.4329987-0.2960052-0.7889977-0.5090027-1.0659981
		c-0.2210007-0.2799988-0.4720001-0.4839973-0.7509995-0.6040001c-0.2779999-0.1230011-0.5690002-0.1839981-0.8690033-0.1839981
		c-0.3159943,0-0.6039963,0.0569992-0.8649979,0.1699982c-0.2570038,0.1119995-0.5070038,0.3139992-0.7460022,0.6040001
		c-0.2129974,0.269001-0.3849945,0.625-0.5149994,1.0680008c-0.1329956,0.4440002-0.1989975,0.973999-0.1989975,1.586998
		c0,0.6340027,0.0619965,1.1590004,0.1869965,1.5779991c0.125,0.4190025,0.2950058,0.7680016,0.5130005,1.0510025
		c0.2220001,0.2859993,0.4720001,0.4909973,0.7529984,0.6119995c0.2820053,0.1230011,0.5740051,0.1850014,0.8720016,0.1850014
		c0.3050003,0,0.5999985-0.0680008,0.8880005-0.2000008c0.2860031-0.1300011,0.5320053-0.3360023,0.7399979-0.6110001
		c0.2220001-0.302002,0.3920059-0.651001,0.512001-1.052002C102.4414978,48.1593971,102.5004959,47.6363983,102.5004959,46.9913979
		 M105.1725006,46.9953957c0,1.6710014-0.4440002,2.9799995-1.3349991,3.9379997
		c-0.8910065,0.9560013-2.1119995,1.4350014-3.6620026,1.4350014c-1.5559998,0-2.776001-0.4860001-3.6610031-1.4529991
		c-0.887001-0.9670029-1.3310013-2.2740021-1.3310013-3.920002c0-1.6580009,0.4440002-2.9679985,1.3310013-3.9319992
		c0.8850021-0.9630013,2.1050034-1.4440002,3.6610031-1.4440002c1.5500031,0,2.7709961,0.4790001,3.6620026,1.4370003
		C104.7285004,44.0143967,105.1725006,45.3273964,105.1725006,46.9953957 M89.0864944,52.1523972v-8.3509979h-3.0449982v-1.9670029
		h8.6790009v1.9670029H91.675499v8.3509979H89.0864944z M82.9054947,46.9913979c0-0.6150017-0.0629959-1.1410027-0.1909943-1.571003
		c-0.125-0.4329987-0.2960052-0.7889977-0.5090027-1.0659981c-0.2210007-0.2799988-0.4720001-0.4839973-0.75-0.6040001
		c-0.2789993-0.1230011-0.5690002-0.1839981-0.8700027-0.1839981c-0.3159943,0-0.6039963,0.0569992-0.8649979,0.1699982
		c-0.2569962,0.1119995-0.5069962,0.3139992-0.7460022,0.6040001c-0.2129974,0.269001-0.3849945,0.625-0.5149994,1.0680008
		c-0.1319962,0.4440002-0.1989975,0.973999-0.1989975,1.586998c0,0.6340027,0.0619965,1.1590004,0.1869965,1.5779991
		c0.125,0.4190025,0.2960052,0.7680016,0.5130005,1.0510025c0.2210007,0.2859993,0.4720001,0.4909973,0.7540054,0.6119995
		c0.2809982,0.1230011,0.572998,0.1850014,0.8709946,0.1850014c0.3050003,0,0.6000061-0.0680008,0.8880005-0.2000008
		c0.2860031-0.1300011,0.5320053-0.3360023,0.7400055-0.6110001c0.2220001-0.302002,0.3919983-0.651001,0.5130005-1.052002
		C82.8464966,48.1593971,82.9054947,47.6363983,82.9054947,46.9913979 M85.5774994,46.9953957
		c0,1.6710014-0.4440002,2.9799995-1.3349991,3.9379997c-0.8909988,0.9560013-2.1119995,1.4350014-3.6610031,1.4350014
		c-1.5569992,0-2.7770004-0.4860001-3.6620026-1.4529991c-0.885994-0.9670029-1.3309937-2.2740021-1.3309937-3.920002
		c0-1.6580009,0.4449997-2.9679985,1.3309937-3.9319992c0.8850021-0.9630013,2.1050034-1.4440002,3.6620026-1.4440002
		c1.5490036,0,2.7700043,0.4790001,3.6610031,1.4370003S85.5774994,45.3273964,85.5774994,46.9953957 M74.0605011,52.1523972
		h-2.5750046v-6.8390007l-1.8759995,4.4140015h-1.7649994l-1.8759995-4.4140015v6.8390007h-2.4349976V41.8343964h2.9809952
		l2.2850037,5.0909996l2.2770004-5.0909996h2.9840012V52.1523972z"/>
</g>
</svg>
